# xmcd
#
# Track frame offsets: 
#        150
#        11508
#        24366
#        36954
#        51399
#        62478
#        72830
#        83014
#        94348
#        109974
#
# Disc length: 1623 seconds
#
# Revision: 0
# Processed by: cddbd v1.5.2PL0 Copyright (c) Steve Scherf et al.
# Submitted via: ExactAudioCopy v0.95b4
#
DISCID=7d06550a
DTITLE=Gord Miln - Moose On The Loose
DYEAR=1900
DGENRE=Acoustic
TTITLE0=Moose On The Loose
TTITLE1=Another Night
TTITLE2=Picking Up Cowpies
TTITLE3=Bluegrass Groupy
TTITLE4=Crotcht Old Guy
TTITLE5=Dumb Cluck Farmer
TTITLE6=Maxine
TTITLE7=12-String
TTITLE8=Wild Bill Jones
TTITLE9=Cow Milking Song
EXTD=
EXTT0=
EXTT1=
EXTT2=
EXTT3=
EXTT4=
EXTT5=
EXTT6=
EXTT7=
EXTT8=
EXTT9=
PLAYORDER=
